<?xml version="1.0" encoding="UTF-8"?>
<svg id="Layer_1" data-name="Layer 1" xmlns="http://www.w3.org/2000/svg" viewBox="0 0 935.11 298.67">
  <g>
    <g>
      <path d="M805.15,152.26q-.21-.47-.42-.92c-1.83-4.1-5.2-7.28-9.29-9.08-.2-.09-.4-.17-.59-.25-3.2-1.36-6.41-2.53-9.83-3.18-.2-.04-.4-.08-.6-.11-2.33-.49-4.57-.63-6.93-.62-.65,0-1.3,0-1.95,0-2.34-.01-4.6.03-6.91.48-.23.05-.45.09-.68.14-5.99,1.03-11.78,3.71-15.72,8.48-.16.2-.31.39-.47.58-4.24,4.92-6.78,10.89-7.11,17.41,0,.33-.02.65-.03.98-.41,11.48,2.67,21.92,8.32,31.87,2.61,4.6,4.81,9.33,6.62,14.3,3.64,10.32,2.58,21.02-2.06,30.96-.09.18-.17.36-.25.54-.94,2.05-1.86,4.05-3.26,5.83-.47.54-.85,1.01-1.19,1.64-.08.16-.15.32-.22.48h-.55v.55q-.55,0-1,.31c-1.35,1.02-2.77,1.62-4.28,2.13-.81-.35-.92-.4-1.61-.69.11-.62.2-1.24.29-1.86.03-.24.06-.46.09-.69.34-2.47.66-4.94.98-7.41.14-1.06.27-2.13.41-3.19.85-6.18,1.1-12.31,1.12-18.54,0-.61,0-1.22,0-1.83.03-6.84-.39-13.56-1.44-20.33q-.08-.5-.16-.99c-.59-3.71-1.31-7.39-2.29-11.03-1.42-5.17-1.84-10.23-2.13-15.56q-.09-1.75-.32-5.54c-.04-.67-.08-1.33-.12-2-.16-2.81-.35-5.61-.69-8.41-.04-.33-.08-.65-.12-.97q-.66-5.66-3.29-17.02c-.32-1.38-.63-2.77-.93-4.16-.06-.27-.11-.53-.17-.78-.4-1.85-.79-3.7-1.14-5.56-1.83-9.99-4.45-25.03,1.67-33.91,1.02-1.07,2.05-1.63,3.49-1.83q.53,0,1.06-.01c.59-.01,1.17-.02,1.76-.03.6,0,1.21-.01,1.81-.02.39,0,.77-.01,1.16-.02.96,0,1.85-.03,2.8-.19q.28-.07.56-.13,0,.55.15,1.09c.07.23.15.45.22.67.08.26.16.51.24.76.09.28.18.55.27.83.18.57.37,1.14.56,1.72.29.91.59,1.81.88,2.72.19.59.38,1.18.57,1.77.09.29.18.57.27.84.09.28.18.55.26.83.08.26.17.51.25.76q.11.34.22.67.22.51.77.78c-.31-1.52-.69-2.98-1.2-4.44-1.1-3.15-2.03-6.34-2.92-9.55q.55,0,1.14-.24c.23-.1.45-.21.68-.31.23-.1.46-.21.68-.31.18-.08.35-.16.52-.24.03.04.05.08.08.13.04.11.09.22.17.38.1.15.2.3.29.44.5.88,1.47,2.24,3.33,4.8.11.16.22.31.33.47,0,0,0,0,0,0,.12.29.38.64,1,1.46h.05c2.13,2.97,4.3,5.89,6.54,8.78.09-.19.18-.37.27-.55-1.03-1.49-2.08-2.97-3.14-4.44-.05-.07-.11-.15-.16-.22,0,0,0,0,0,0-.1-.17-.19-.34-.29-.51-.15-.19-.29-.37-.44-.55-.13-.17-.27-.32-.41-.48-.52-.72-1.04-1.44-1.57-2.15-.03-.04-.06-.08-.09-.12l.03-.03c-2.05-2.67-3.99-5.37-5.76-8.23h.55c-.1-.03-.2-.07-.3-.1.65-.28,1.31-.51,1.99-.74q1.72.28,3.16,1.33c.52.39,1.05.77,1.58,1.14.27.19.54.38.81.57,1.1.78,2.21,1.53,3.37,2.23.18.11.35.21.52.31,1.02.61,2.02,1.15,3.14,1.56q-.27-.55-.84-.94c-.25-.16-.5-.31-.74-.46-.28-.18-.56-.35-.83-.52-1.18-.73-2.36-1.48-3.54-2.23-.31-.19-.6-.38-.9-.57q-.47-.29-.92-.58c-.3-.19-.59-.38-.89-.56-.98-.62-1.8-1.25-2.6-2.1,3.35-2.2,7.07-3.79,10.79-5.25,2.49-.98,5.05-1.96,7.25-3.52,1.2-1.09,1.65-2.47,1.84-4.05-.18-1.37-.68-2.27-1.62-3.28-.27-.24-.54-.48-.8-.72-1.04-.94-2.12-1.82-3.24-2.67-2.19-1.65-3.59-3.07-4.86-5.53-2.85-5.78-5.31-11.45-3.16-17.79.8-2.33,1.96-4.93,1.48-7.42-.39-.94-.77-1.43-1.62-1.99-3-1.46-6.83-.98-9.88.04q-.31.1-.61.2c-.19.06-.38.12-.56.19q-.31.1-.61.2c-.7.23-1.39.47-2.07.76-3.49,1.53-6.52,1.96-10.32,1.93-.84,0-1.68-.01-2.51,0-.54,0-1.09,0-1.63,0-2.3-.03-4.4.17-6.58.95q-.42.19-.83.37c-.29.13-.57.25-.85.37-.21.1-.42.19-.62.28q-.28-.55-.55-1.1.14.78,0,1.65-.81.61-1.65,1.1c-.89-.9-1.78-1.8-2.68-2.7-.37-.37-.73-.74-1.1-1.1-.54-.54-1.07-1.09-1.61-1.63-.17-.17-.34-.34-.51-.51-.17-.17-.33-.34-.49-.5-.06-.06-.12-.12-.18-.18-.04-.04-.08-.08-.13-.13-.05-.05-.11-.11-.16-.16-.6-.6-1.16-.97-1.93-1.32v.55c.24.21.48.42.72.62.52.44.88.76,1.18,1.02.31.29.61.58.91.88.28.28.55.57.83.85.45.45.89.91,1.34,1.36.45.46.89.92,1.34,1.37.14.15.29.29.43.43.49.51.92.99,1.46,1.32.1.13.2.24.31.38q0,.77-.27,1.37c-.21-.04-.42-.08-.63-.13-1.53-.53-3.04-1.1-4.53-1.72-.03-.01-.05-.02-.09-.04-.4-.18-.79-.36-1.19-.54-.82-.38-1.42-.76-2.2-.73-.23-.06-.46-.11-.7-.14v.27c1.42.62,2.84,1.26,4.25,1.92q.32.15.63.29c.36.17.71.34,1.07.51.21.1.42.2.63.31.47.24.94.48,1.39.74.09.06.18.11.27.17-.04,1.54-.05,1.58-.6,3.11-.77,2.15-1.45,4.3-2.02,6.51-.07.29-.14.57-.21.85-.64,2.54-1.08,5.07-1.41,7.67-.56,4.57-1.04,9.16-3.17,13.32-.48.94-.87,1.88-1.22,2.88-.08.22-.15.44-.22.65-1.53,4.42-2.86,8.93-4.03,13.46-.1.38-.19.76-.29,1.13-2.66,10.2-4.59,20.46-5.45,30.97-.17,2.13-.39,4.25-.7,6.36-.16,1.07-.31,2.14-.45,3.22-.07.52-.14,1.03-.21,1.55-.11.8-.22,1.59-.32,2.39-.39,2.88-.76,5.77-1.26,8.63-.07.43-.15.86-.22,1.28-.34,2.12-.7,4.24-1.1,6.35-.05.24-.09.47-.13.7-.19,1.01-.39,2.02-.58,3.04-.77,4-1.48,7.99-2.01,12.03-.57,4.39-1.12,8.6-3.08,12.61-.74,1.52-1.44,3.05-2.12,4.59-.13.31-.27.6-.4.9-4.55,10.33-8.34,20.74-9.73,32.01-.12,1.09-.25,2.16-.43,3.24-.48,2.83-.84,5.65-1.05,8.51-.02.23-.03.45-.05.67-.57,7.61-.76,15.35.1,22.95q.04.37.09.74c.09.74.18,1.49.28,2.23.03.23.07.46.1.69.17,1.22.37,2.26.98,3.34q.28.44.56.88c.32.54.64.98,1.07,1.44,2.48,2.06,5.9,2.05,8.95,2.03.5,0,1,0,1.5,0,1.37,0,2.75,0,4.12,0,1.46,0,2.92,0,4.38,0,2.45,0,4.89,0,7.34,0,2.84,0,5.69-.01,8.53,0,2.76,0,5.53,0,8.29,0,1.17,0,2.34,0,3.51,0,1.4,0,2.8,0,4.2,0,.52,0,1.03,0,1.55,0,.72,0,1.43,0,2.15,0,.22,0,.44,0,.65,0,1.21.01,2.19-.06,3.25-.67.77-.5,1.54-.9,2.37-1.29q.27-.12.53-.24c.39-.18.77-.36,1.16-.53.6-.27,1.19-.55,1.79-.82,2.13-.99,4.25-1.9,6.5-2.58,1.14-.33,2.21-.65,3.25-1.25,3.73-2.65,5.42-7.8,6.37-12.07.12-.54.23-1.09.36-1.63.52-2.3.94-4.6,1.23-6.94.04-.32.07-.63.11-.94.5-4.12.6-8.22.6-12.37v-.82c0-4.61-.13-9.15-.69-13.73-.07-.55-.14-1.11-.2-1.66-.4-3.46-1.19-6.69-2.51-9.92-.1-.25-.21-.49-.31-.73-.71-1.72-1.45-3.43-2.25-5.11-1.11-2.33-2.13-4.68-3.12-7.06-.11-.25-.21-.5-.31-.75-1.47-3.53-2.67-7.05-3.43-10.8q-.07-.37-.14-.73c-.43-2.25-.61-4.42-.61-6.71,0-.36,0-.72.01-1.07,0-3.92.23-7.91,2.18-11.43.12-.19.23-.37.34-.55.98-1.58,2.01-2.98,3.48-4.13,6.96-4.7,16.16-7.33,24.54-6.18.27.05.53.1.79.16,2.53.42,4.89.99,7.24,2.05.26.12.51.24.76.35.47.22.94.44,1.41.66,2.74,1.49,5.31,4.47,6.24,7.45.79,3.58.64,8.7-1.25,11.94-.14.2-.27.4-.4.6-1.32,1.99-2.91,2.98-5.21,3.57-3.26.42-6.91-.24-9.61-2.2-1.66-1.62-2.24-3.39-2.26-5.69.04-2.51.76-4.56,2.54-6.38,1.23-.82,2.39-1.06,3.84-.82,1.65.52,2.98,1.5,3.84,3.02.44,1.48.35,2.69-.27,4.12-.37-.18-.73-.36-1.1-.55-1.26-.7-2.37-1.31-3.81-1.54q-.86.17-1.53.75c-.51.94-.65,1.38-.43,2.44.86.95,1.77,1.48,2.93,2.01,1.6.6,3.44.87,5.07.23,1.77-1.12,2.67-3.63,3.25-5.53.34-2.36-.09-4.68-1.42-6.66-2.4-2.35-4.93-3.81-8.34-3.92-.25,0-.49,0-.73,0-.91-.02-1.78,0-2.68.15-2.66,1.01-4.25,2.73-5.5,5.24-1.24,3.3-.85,7.82.31,11.09.09.23.17.46.26.68,1.39,3.75,3.87,6.22,7.37,8.11,3.22,1.52,6.48,1.18,9.77.08,4.57-1.65,8.54-4.25,10.75-8.73.13-.29.25-.56.37-.84,2.07-4.64,2.23-10.52.42-15.27Z"/>
      <path d="M706.26,38.38c.61.27,1.21.54,1.82.8.37.16.73.32,1.1.48.54.24,1.08.48,1.62.71.17.08.34.15.51.22,1.07.47,1.47.79,2.58.42-1.16-.5-2.29-1.01-3.41-1.59-1.68-.88-3.15-1.67-5.1-1.7v.27c.24.11.47.21.7.31.06.02.11.05.17.07Z"/>
    </g>
    <path d="M740.69,157.08s.33,11.81-25.24,14.77c0,0,21.55,6.52,26.44-1.13l-1.2-13.64Z" fill="#ffb400"/>
    <path d="M743.71,186.92s-11.04,8.41-33.4-3.11c0,0,22.32,27.59,36.58,19.35l-.18-1.47-2.5-13.51-.51-1.26Z" fill="#ffb400"/>
    <path d="M735.08,132.27s-6.78,17.89-15.62,21.3c0,0,16.37,1.25,18.9-10.11l-2.54-11.71-.74.52Z" fill="#ffb400"/>
  </g>
  <g>
    <path d="M71.68,266.07L46.63,32.22h45.74l13.07,147.55,13.07-147.55h43.56l12.52,147.55,12.52-147.55h46.28l-25.59,233.85h-56.08l-11.71-112.71-11.16,112.71h-57.17Z" fill="#343434"/>
    <path d="M245.09,266.07V32.22h45.19v233.85h-45.19Z" fill="#343434"/>
    <path d="M309.06,266.07V32.22h46.82v194.1h48.19v39.75h-95.01Z" fill="#343434"/>
    <path d="M417.14,32.22h64.52c16.7,0,29.22,4.63,37.57,13.88,8.35,9.26,12.61,22.96,12.8,41.11l.54,109.44c.18,23.05-3.81,40.38-11.98,52-8.17,11.62-21.69,17.42-40.56,17.42h-62.89V32.22ZM472.4,224.69c8.53,0,12.79-4.17,12.79-12.52v-120.6c0-5.26-.41-9.21-1.23-11.84-.82-2.63-2.31-4.4-4.49-5.31-2.18-.91-5.54-1.36-10.07-1.36h-5.17v151.64h8.17Z" fill="#343434"/>
    <path d="M564.83,252.19c-10.26-10.71-15.38-25.41-15.38-44.1v-107.81c0-23.23,4.63-40.74,13.88-52.54,9.26-11.79,23.77-17.7,43.56-17.7,17.24,0,31.12,4.72,41.65,14.16,10.52,9.44,15.79,23.05,15.79,40.84v40.29h-46.55v-34.57c0-6.71-.82-11.34-2.45-13.88-1.63-2.54-4.45-3.81-8.44-3.81s-7.04,1.46-8.58,4.36c-1.54,2.91-2.31,7.17-2.31,12.79v117.33c0,6.17.91,10.66,2.72,13.48,1.81,2.82,4.53,4.22,8.17,4.22,7.26,0,10.89-5.9,10.89-17.7v-42.2h47.1v44.1c0,39.2-19.69,58.8-59.08,58.8-17.06,0-30.72-5.35-40.97-16.06Z" fill="#343434"/>
  </g>
  <path d="M813.91,268.43V79.5h-27.77v-44.92h102.36v44.92h-27.77v188.93h-46.82Z" fill="#343434"/>
</svg>